<?xml version="1.0" encoding="UTF-8" standalone="no"?>
<svg
   viewBox="0 0 305 405"
   version="1.1"
   id="svg18"
   sodipodi:docname="about.svg"
   inkscape:version="1.4.1 (93de688d07, 2025-03-30)"
   width="305"
   height="405"
   xmlns:inkscape="http://www.inkscape.org/namespaces/inkscape"
   xmlns:sodipodi="http://sodipodi.sourceforge.net/DTD/sodipodi-0.dtd"
   xmlns="http://www.w3.org/2000/svg"
   xmlns:svg="http://www.w3.org/2000/svg">
  <defs
     id="defs18" />
  <sodipodi:namedview
     id="namedview18"
     pagecolor="#ffffff"
     bordercolor="#000000"
     borderopacity="0.25"
     inkscape:showpageshadow="2"
     inkscape:pageopacity="0.0"
     inkscape:pagecheckerboard="0"
     inkscape:deskcolor="#d1d1d1"
     inkscape:zoom="0.57982756"
     inkscape:cx="86.232534"
     inkscape:cy="563.96077"
     inkscape:window-width="1920"
     inkscape:window-height="1029"
     inkscape:window-x="0"
     inkscape:window-y="27"
     inkscape:window-maximized="1"
     inkscape:current-layer="svg18" />
  <!-- Sfondo arcade -->
  <!-- Cabinato arcade stilizzato -->
  <path
     id="rect2"
     style="fill:#0f3460;stroke:#e94560;stroke-width:5"
     d="m 12.5,2.5 h 280 c 5.54,0 10,4.46 10,10 v 380 c 0,5.54 -4.46,10 -10,10 h -280 c -5.54,0 -10,-4.46 -10,-10 v -380 c 0,-5.54 4.46,-10 10,-10 z" />
  <path
     id="rect3"
     style="fill:#16213e;stroke:#e94560;stroke-width:3"
     d="m 27.5,32.5 h 250 c 2.77,0 5,2.23 5,5 v 170 c 0,2.77 -2.23,5 -5,5 h -250 c -2.77,0 -5,-2.23 -5,-5 v -170 c 0,-2.77 2.23,-5 5,-5 z" />
  <!-- Schermo con testo MAME -->
  <path
     id="rect4"
     d="m 35.5,42.5 h 234 c 1.662,0 3,1.338 3,3 v 154 c 0,1.662 -1.338,3 -3,3 h -234 c -1.662,0 -3,-1.338 -3,-3 v -154 c 0,-1.662 1.338,-3 3,-3 z" />
  <!-- Testo "MAME" con effetto neon -->
  <path
     d="M 60.0625,122.5 V 88.14062 h 6.84375 l 8.13281,24.32813 q 1.125,3.39844 1.64063,5.08594 0.58593,-1.875 1.82812,-5.50782 l 8.22656,-23.90625 h 6.11719 V 122.5 H 88.46875 V 93.74219 L 78.48437,122.5 h -4.10156 l -9.9375,-29.25 v 29.25 z m 36.35156,0 13.19531,-34.35938 h 4.89844 L 128.57031,122.5 h -5.17969 l -4.00781,-10.40625 H 105.01562 L 101.24219,122.5 Z m 9.91406,-14.10938 h 11.64844 L 114.39062,98.875 q -1.64062,-4.33594 -2.4375,-7.125 -0.65625,3.30469 -1.85156,6.5625 z M 132.0625,122.5 V 88.14062 h 6.84375 l 8.13281,24.32813 q 1.125,3.39844 1.64063,5.08594 0.58593,-1.875 1.82812,-5.50782 l 8.22656,-23.90625 h 6.11719 V 122.5 h -4.38281 V 93.74219 L 150.48437,122.5 h -4.10156 l -9.9375,-29.25 v 29.25 z m 40.21875,0 V 88.14062 H 197.125 v 4.05469 h -20.29688 v 10.52344 h 19.00782 V 106.75 h -19.00782 v 11.69531 h 21.09375 V 122.5 Z M 226.75,88.14062 h 4.54687 v 19.85157 q 0,5.17968 -1.17187,8.22656 -1.17188,3.04687 -4.24219,4.96875 -3.04687,1.89844 -8.01562,1.89844 -4.82813,0 -7.89844,-1.66407 -3.07031,-1.66406 -4.38281,-4.80468 -1.3125,-3.16407 -1.3125,-8.625 V 88.14062 h 4.54687 v 19.82813 q 0,4.47656 0.82031,6.60937 0.84375,2.10938 2.85938,3.25782 2.03906,1.14843 4.96875,1.14843 5.01562,0 7.14844,-2.27343 2.13281,-2.27344 2.13281,-8.74219 z M 239.64062,122.5 V 88.14062 h 4.54688 V 122.5 Z"
     id="text4"
     style="font-size:48px;font-family:Arial, sans-serif;text-anchor:middle;fill:#e94560;stroke:#ff2e63;stroke-width:2"
     aria-label="MAMEUI" />
  <path
     d="m 32.29687,152.5 v -11.45313 h 2.28125 l 2.71094,8.10938 q 0.375,1.13281 0.54688,1.69531 0.19531,-0.625 0.60937,-1.83594 l 2.74219,-7.96875 h 2.03906 V 152.5 h -1.46094 v -9.58594 L 38.4375,152.5 h -1.36719 l -3.3125,-9.75 v 9.75 z m 18.63282,0 v -1.21875 q -0.96875,1.40625 -2.63282,1.40625 -0.73437,0 -1.375,-0.28125 -0.63281,-0.28125 -0.94531,-0.70313 -0.30469,-0.42968 -0.42969,-1.04687 -0.0859,-0.41406 -0.0859,-1.3125 v -5.14063 h 1.40625 v 4.60157 q 0,1.10156 0.0859,1.48437 0.13282,0.55469 0.5625,0.875 0.42969,0.3125 1.0625,0.3125 0.63282,0 1.1875,-0.32031 0.55469,-0.32813 0.78125,-0.88281 0.23438,-0.5625 0.23438,-1.625 v -4.44532 H 52.1875 V 152.5 Z m 3.42968,0 v -11.45313 h 1.40625 V 152.5 Z m 6.65625,-1.25781 0.20313,1.24218 q -0.59375,0.125 -1.0625,0.125 -0.76563,0 -1.1875,-0.24218 -0.42188,-0.24219 -0.59375,-0.63282 -0.17188,-0.39843 -0.17188,-1.66406 v -4.77344 h -1.03125 v -1.09375 h 1.03125 v -2.05468 l 1.39844,-0.84375 v 2.89843 h 1.41406 v 1.09375 h -1.41406 v 4.85157 q 0,0.60156 0.0703,0.77343 0.0781,0.17188 0.24219,0.27344 0.17188,0.10156 0.48438,0.10156 0.23437,0 0.61718,-0.0547 z m 1.38282,-8.57813 v -1.61719 h 1.40625 v 1.61719 z m 0,9.83594 v -8.29688 h 1.40625 V 152.5 Z m 3.54687,3.17969 v -11.47657 h 1.28125 v 1.07813 q 0.45313,-0.63281 1.02344,-0.94531 0.57031,-0.32032 1.38281,-0.32032 1.0625,0 1.875,0.54688 0.8125,0.54687 1.22656,1.54687 0.41407,0.99219 0.41407,2.17969 0,1.27344 -0.46094,2.29688 -0.45313,1.01562 -1.32813,1.5625 -0.86718,0.53906 -1.82812,0.53906 -0.70313,0 -1.26563,-0.29688 -0.55468,-0.29687 -0.91406,-0.75 v 4.03907 z m 1.27344,-7.28125 q 0,1.60156 0.64844,2.36718 0.64843,0.76563 1.57031,0.76563 0.9375,0 1.60156,-0.78906 0.67188,-0.79688 0.67188,-2.46094 0,-1.58594 -0.65625,-2.375 -0.64844,-0.78906 -1.55469,-0.78906 -0.89844,0 -1.59375,0.84375 -0.6875,0.83593 -0.6875,2.4375 z M 74.8125,152.5 v -11.45313 h 1.40625 V 152.5 Z m 9.26562,-2.67188 1.45313,0.17969 q -0.34375,1.27344 -1.27344,1.97656 -0.92969,0.70313 -2.375,0.70313 -1.82031,0 -2.89062,-1.11719 -1.0625,-1.125 -1.0625,-3.14844 0,-2.09375 1.07812,-3.25 1.07813,-1.15625 2.79688,-1.15625 1.66406,0 2.71875,1.13282 1.05468,1.13281 1.05468,3.1875 0,0.125 -0.008,0.375 h -6.1875 q 0.0781,1.36718 0.77344,2.09375 0.69531,0.72656 1.73437,0.72656 0.77344,0 1.32032,-0.40625 0.54687,-0.40625 0.86718,-1.29688 z m -4.61718,-2.27343 h 4.63281 q -0.0937,-1.04688 -0.53125,-1.57032 -0.67188,-0.8125 -1.74219,-0.8125 -0.96875,0 -1.63281,0.64844 -0.65625,0.64844 -0.72656,1.73438 z M 89.78125,152.5 94.17969,141.04687 H 95.8125 L 100.5,152.5 H 98.77344 L 97.4375,149.03125 H 92.64844 L 91.39062,152.5 Z m 3.30469,-4.70313 h 3.88281 L 95.77344,144.625 q -0.54688,-1.44531 -0.8125,-2.375 -0.21875,1.10156 -0.61719,2.1875 z m 8.42968,4.70313 v -8.29688 h 1.26563 v 1.25782 q 0.48437,-0.88282 0.89062,-1.16407 0.41407,-0.28125 0.90625,-0.28125 0.71094,0 1.44532,0.45313 l -0.48438,1.30469 q -0.51562,-0.30469 -1.03125,-0.30469 -0.46094,0 -0.82812,0.28125 -0.36719,0.27344 -0.52344,0.76562 -0.23438,0.75 -0.23438,1.64063 V 152.5 Z m 10.75782,-3.03906 1.38281,0.17968 q -0.22656,1.42969 -1.16406,2.24219 -0.92969,0.80469 -2.28907,0.80469 -1.70312,0 -2.74218,-1.10938 -1.03125,-1.11718 -1.03125,-3.19531 0,-1.34375 0.44531,-2.35156 0.44531,-1.00781 1.35156,-1.50781 0.91406,-0.50782 1.98438,-0.50782 1.35156,0 2.21093,0.6875 0.85938,0.67969 1.10157,1.9375 l -1.36719,0.21094 q -0.19531,-0.83594 -0.69531,-1.25781 -0.49219,-0.42188 -1.19532,-0.42188 -1.0625,0 -1.72656,0.76563 -0.66406,0.75781 -0.66406,2.40625 0,1.67187 0.64062,2.42969 0.64063,0.75781 1.67188,0.75781 0.82812,0 1.38281,-0.50781 0.55469,-0.50782 0.70313,-1.5625 z m 8,2.01562 q -0.78125,0.66406 -1.50782,0.9375 -0.71875,0.27344 -1.54687,0.27344 -1.36719,0 -2.10156,-0.66406 -0.73438,-0.67188 -0.73438,-1.71094 0,-0.60938 0.27344,-1.10938 0.28125,-0.50781 0.72656,-0.8125 0.45313,-0.30468 1.01563,-0.46093 0.41406,-0.10938 1.25,-0.21094 1.70312,-0.20313 2.50781,-0.48438 0.008,-0.28906 0.008,-0.36718 0,-0.85938 -0.39844,-1.21094 -0.53906,-0.47656 -1.60156,-0.47656 -0.99219,0 -1.46875,0.35156 -0.46875,0.34375 -0.69531,1.22656 l -1.375,-0.1875 q 0.1875,-0.88281 0.61719,-1.42187 0.42968,-0.54688 1.24218,-0.83594 0.8125,-0.29688 1.88282,-0.29688 1.0625,0 1.72656,0.25 0.66406,0.25 0.97656,0.63282 0.3125,0.375 0.4375,0.95312 0.0703,0.35938 0.0703,1.29688 v 1.875 q 0,1.96093 0.0859,2.48437 0.0937,0.51563 0.35938,0.99219 h -1.46875 q -0.21875,-0.4375 -0.28125,-1.02344 z m -0.11719,-3.14062 q -0.76563,0.3125 -2.29688,0.53125 -0.86718,0.125 -1.22656,0.28125 -0.35937,0.15625 -0.55469,0.46093 -0.19531,0.29688 -0.19531,0.66407 0,0.5625 0.42188,0.9375 0.42968,0.375 1.25,0.375 0.8125,0 1.44531,-0.35157 0.63281,-0.35937 0.92969,-0.97656 0.22656,-0.47656 0.22656,-1.40625 z m 8.98437,4.16406 v -1.04688 q -0.78906,1.23438 -2.32031,1.23438 -0.99219,0 -1.82812,-0.54688 -0.82813,-0.54687 -1.28907,-1.52343 -0.45312,-0.98438 -0.45312,-2.25782 0,-1.24218 0.41406,-2.25 0.41406,-1.01562 1.24219,-1.55468 0.82812,-0.53907 1.85156,-0.53907 0.75,0 1.33594,0.32032 0.58594,0.3125 0.95312,0.82031 v -4.10938 h 1.39844 V 152.5 Z m -4.44531,-4.14063 q 0,1.59375 0.67188,2.38282 0.67187,0.78906 1.58593,0.78906 0.92188,0 1.5625,-0.75 0.64844,-0.75781 0.64844,-2.30469 0,-1.70312 -0.65625,-2.5 -0.65625,-0.79687 -1.61719,-0.79687 -0.9375,0 -1.57031,0.76562 -0.625,0.76563 -0.625,2.41406 z m 13.64063,1.46875 1.45312,0.17969 q -0.34375,1.27344 -1.27344,1.97656 -0.92968,0.70313 -2.375,0.70313 -1.82031,0 -2.89062,-1.11719 -1.0625,-1.125 -1.0625,-3.14844 0,-2.09375 1.07812,-3.25 1.07813,-1.15625 2.79688,-1.15625 1.66406,0 2.71875,1.13282 1.05469,1.13281 1.05469,3.1875 0,0.125 -0.008,0.375 h -6.1875 q 0.0781,1.36718 0.77344,2.09375 0.69531,0.72656 1.73438,0.72656 0.77343,0 1.32031,-0.40625 0.54687,-0.40625 0.86719,-1.29688 z m -4.61719,-2.27343 h 4.63281 q -0.0937,-1.04688 -0.53125,-1.57032 -0.67187,-0.8125 -1.74219,-0.8125 -0.96875,0 -1.63281,0.64844 -0.65625,0.64844 -0.72656,1.73438 z M 146.13281,152.5 v -11.45313 h 2.28125 l 2.71094,8.10938 q 0.375,1.13281 0.54687,1.69531 0.19532,-0.625 0.60938,-1.83594 l 2.74219,-7.96875 h 2.03906 V 152.5 h -1.46094 v -9.58594 L 152.27344,152.5 h -1.36719 l -3.3125,-9.75 v 9.75 z m 18.60938,-1.02344 q -0.78125,0.66406 -1.50782,0.9375 -0.71875,0.27344 -1.54687,0.27344 -1.36719,0 -2.10156,-0.66406 -0.73438,-0.67188 -0.73438,-1.71094 0,-0.60938 0.27344,-1.10938 0.28125,-0.50781 0.72656,-0.8125 0.45313,-0.30468 1.01563,-0.46093 0.41406,-0.10938 1.25,-0.21094 1.70312,-0.20313 2.50781,-0.48438 0.008,-0.28906 0.008,-0.36718 0,-0.85938 -0.39844,-1.21094 -0.53906,-0.47656 -1.60156,-0.47656 -0.99219,0 -1.46875,0.35156 -0.46875,0.34375 -0.69531,1.22656 l -1.375,-0.1875 q 0.1875,-0.88281 0.61719,-1.42187 0.42968,-0.54688 1.24218,-0.83594 0.8125,-0.29688 1.88282,-0.29688 1.0625,0 1.72656,0.25 0.66406,0.25 0.97656,0.63282 0.3125,0.375 0.4375,0.95312 0.0703,0.35938 0.0703,1.29688 v 1.875 q 0,1.96093 0.0859,2.48437 0.0937,0.51563 0.35938,0.99219 h -1.46875 q -0.21875,-0.4375 -0.28125,-1.02344 z m -0.11719,-3.14062 q -0.76563,0.3125 -2.29688,0.53125 -0.86718,0.125 -1.22656,0.28125 -0.35937,0.15625 -0.55469,0.46093 -0.19531,0.29688 -0.19531,0.66407 0,0.5625 0.42188,0.9375 0.42968,0.375 1.25,0.375 0.8125,0 1.44531,-0.35157 0.63281,-0.35937 0.92969,-0.97656 0.22656,-0.47656 0.22656,-1.40625 z m 9.01562,1.125 1.38282,0.17968 q -0.22657,1.42969 -1.16407,2.24219 -0.92968,0.80469 -2.28906,0.80469 -1.70312,0 -2.74219,-1.10938 -1.03125,-1.11718 -1.03125,-3.19531 0,-1.34375 0.44532,-2.35156 0.44531,-1.00781 1.35156,-1.50781 0.91406,-0.50782 1.98437,-0.50782 1.35157,0 2.21094,0.6875 0.85938,0.67969 1.10156,1.9375 l -1.36718,0.21094 q -0.19532,-0.83594 -0.69532,-1.25781 -0.49218,-0.42188 -1.19531,-0.42188 -1.0625,0 -1.72656,0.76563 -0.66406,0.75781 -0.66406,2.40625 0,1.67187 0.64062,2.42969 0.64063,0.75781 1.67188,0.75781 0.82812,0 1.38281,-0.50781 0.55469,-0.50782 0.70312,-1.5625 z m 2.58594,3.03906 v -11.45313 h 1.40625 v 4.10938 q 0.98438,-1.14063 2.48438,-1.14063 0.92187,0 1.60156,0.36719 0.67969,0.35938 0.96875,1 0.29687,0.64063 0.29687,1.85938 V 152.5 h -1.40625 v -5.25781 q 0,-1.05469 -0.46093,-1.53125 -0.45313,-0.48438 -1.28907,-0.48438 -0.625,0 -1.17968,0.32813 -0.54688,0.32031 -0.78125,0.875 -0.23438,0.55468 -0.23438,1.53125 V 152.5 Z m 8.90625,-9.83594 v -1.61719 h 1.40625 v 1.61719 z m 0,9.83594 v -8.29688 h 1.40625 V 152.5 Z m 3.54688,0 v -8.29688 h 1.26562 v 1.17969 q 0.91406,-1.36719 2.64063,-1.36719 0.75,0 1.375,0.27344 0.63281,0.26563 0.94531,0.70313 0.3125,0.4375 0.4375,1.03906 0.0781,0.39062 0.0781,1.36719 V 152.5 h -1.40625 v -5.04688 q 0,-0.85937 -0.16406,-1.28125 -0.16406,-0.42968 -0.58594,-0.67968 -0.41406,-0.25782 -0.97656,-0.25782 -0.89844,0 -1.55469,0.57032 -0.64843,0.57031 -0.64843,2.16406 V 152.5 Z m 14.57812,-2.67188 1.45313,0.17969 q -0.34375,1.27344 -1.27344,1.97656 -0.92969,0.70313 -2.375,0.70313 -1.82031,0 -2.89063,-1.11719 -1.0625,-1.125 -1.0625,-3.14844 0,-2.09375 1.07813,-3.25 1.07812,-1.15625 2.79687,-1.15625 1.66407,0 2.71875,1.13282 1.05469,1.13281 1.05469,3.1875 0,0.125 -0.008,0.375 h -6.1875 q 0.0781,1.36718 0.77344,2.09375 0.69531,0.72656 1.73437,0.72656 0.77344,0 1.32031,-0.40625 0.54688,-0.40625 0.86719,-1.29688 z m -4.61719,-2.27343 h 4.63282 q -0.0937,-1.04688 -0.53125,-1.57032 -0.67188,-0.8125 -1.74219,-0.8125 -0.96875,0 -1.63281,0.64844 -0.65625,0.64844 -0.72657,1.73438 z M 211.13281,152.5 v -11.45313 h 8.28125 v 1.35157 h -6.76562 v 3.50781 h 6.33593 V 147.25 h -6.33593 v 3.89844 h 7.03125 V 152.5 Z m 10.46094,0 v -8.29688 h 1.25781 v 1.16407 q 0.39063,-0.60938 1.03906,-0.97657 0.64844,-0.375 1.47657,-0.375 0.92187,0 1.50781,0.38282 0.59375,0.38281 0.83594,1.07031 0.98437,-1.45313 2.5625,-1.45313 1.23437,0 1.89843,0.6875 0.66407,0.67969 0.66407,2.10157 V 152.5 h -1.39844 v -5.22656 q 0,-0.84375 -0.14063,-1.21094 -0.13281,-0.375 -0.49218,-0.60156 -0.35938,-0.22657 -0.84375,-0.22657 -0.875,0 -1.45313,0.58594 -0.57812,0.57813 -0.57812,1.85938 V 152.5 h -1.40625 v -5.39063 q 0,-0.9375 -0.34375,-1.40625 -0.34375,-0.46875 -1.125,-0.46875 -0.59375,0 -1.10157,0.3125 -0.5,0.3125 -0.72656,0.91407 Q 223,147.0625 223,148.19531 V 152.5 Z m 18.76562,0 v -1.21875 q -0.96875,1.40625 -2.63281,1.40625 -0.73437,0 -1.375,-0.28125 -0.63281,-0.28125 -0.94531,-0.70313 -0.30469,-0.42968 -0.42969,-1.04687 -0.0859,-0.41406 -0.0859,-1.3125 v -5.14063 h 1.40625 v 4.60157 q 0,1.10156 0.0859,1.48437 0.13281,0.55469 0.5625,0.875 0.42969,0.3125 1.0625,0.3125 0.63281,0 1.1875,-0.32031 0.55469,-0.32813 0.78125,-0.88281 0.23438,-0.5625 0.23438,-1.625 v -4.44532 h 1.40625 V 152.5 Z m 3.42969,0 v -11.45313 h 1.40625 V 152.5 Z m 9,-1.02344 q -0.78125,0.66406 -1.50781,0.9375 -0.71875,0.27344 -1.54688,0.27344 -1.36718,0 -2.10156,-0.66406 -0.73437,-0.67188 -0.73437,-1.71094 0,-0.60938 0.27343,-1.10938 0.28125,-0.50781 0.72657,-0.8125 0.45312,-0.30468 1.01562,-0.46093 0.41406,-0.10938 1.25,-0.21094 1.70313,-0.20313 2.50781,-0.48438 0.008,-0.28906 0.008,-0.36718 0,-0.85938 -0.39844,-1.21094 -0.53906,-0.47656 -1.60156,-0.47656 -0.99219,0 -1.46875,0.35156 -0.46875,0.34375 -0.69532,1.22656 l -1.375,-0.1875 q 0.1875,-0.88281 0.61719,-1.42187 0.42969,-0.54688 1.24219,-0.83594 0.8125,-0.29688 1.88281,-0.29688 1.0625,0 1.72656,0.25 0.66407,0.25 0.97657,0.63282 0.3125,0.375 0.4375,0.95312 0.0703,0.35938 0.0703,1.29688 v 1.875 q 0,1.96093 0.0859,2.48437 0.0937,0.51563 0.35937,0.99219 h -1.46875 q -0.21875,-0.4375 -0.28125,-1.02344 z m -0.11719,-3.14062 q -0.76562,0.3125 -2.29687,0.53125 -0.86719,0.125 -1.22656,0.28125 -0.35938,0.15625 -0.55469,0.46093 -0.19531,0.29688 -0.19531,0.66407 0,0.5625 0.42187,0.9375 0.42969,0.375 1.25,0.375 0.8125,0 1.44531,-0.35157 0.63282,-0.35937 0.92969,-0.97656 0.22656,-0.47656 0.22656,-1.40625 z m 6.67188,2.90625 0.20312,1.24218 q -0.59375,0.125 -1.0625,0.125 -0.76562,0 -1.1875,-0.24218 -0.42187,-0.24219 -0.59375,-0.63282 -0.17187,-0.39843 -0.17187,-1.66406 v -4.77344 H 255.5 v -1.09375 h 1.03125 v -2.05468 l 1.39844,-0.84375 v 2.89843 h 1.41406 v 1.09375 h -1.41406 v 4.85157 q 0,0.60156 0.0703,0.77343 0.0781,0.17188 0.24219,0.27344 0.17187,0.10156 0.48437,0.10156 0.23438,0 0.61719,-0.0547 z m 0.85156,-2.89063 q 0,-2.30469 1.28125,-3.41406 1.07031,-0.92188 2.60938,-0.92188 1.71093,0 2.79687,1.125 1.08594,1.11719 1.08594,3.09375 0,1.60157 -0.48438,2.52344 -0.47656,0.91406 -1.39843,1.42188 -0.91407,0.50781 -2,0.50781 -1.74219,0 -2.82032,-1.11719 -1.07031,-1.11719 -1.07031,-3.21875 z m 1.44531,0 q 0,1.59375 0.69532,2.39063 0.69531,0.78906 1.75,0.78906 1.04687,0 1.74218,-0.79688 0.69532,-0.79687 0.69532,-2.42968 0,-1.53907 -0.70313,-2.32813 -0.69531,-0.79687 -1.73437,-0.79687 -1.05469,0 -1.75,0.78906 -0.69532,0.78906 -0.69532,2.38281 z m 7.96094,4.14844 v -8.29688 h 1.26563 v 1.25782 q 0.48437,-0.88282 0.89062,-1.16407 0.41406,-0.28125 0.90625,-0.28125 0.71094,0 1.44531,0.45313 l -0.48437,1.30469 q -0.51563,-0.30469 -1.03125,-0.30469 -0.46094,0 -0.82813,0.28125 -0.36718,0.27344 -0.52343,0.76562 -0.23438,0.75 -0.23438,1.64063 V 152.5 Z"
     id="text5"
     style="font-size:16px;font-family:Arial, sans-serif;text-anchor:middle;fill:#50c5b7"
     aria-label="Multiple Arcade Machine Emulator" />
  <!-- Controlli arcade -->
  <path
     id="circle5"
     style="fill:#ffd700;stroke:#e94560;stroke-width:3"
     d="m 97.5,272.5 a 25,25 0 0 1 -25,25 25,25 0 0 1 -25,-25 25,25 0 0 1 25,-25 25,25 0 0 1 25,25 z" />
  <path
     id="circle6"
     style="fill:#ffd700;stroke:#e94560;stroke-width:3"
     d="m 177.5,272.5 a 25,25 0 0 1 -25,25 25,25 0 0 1 -25,-25 25,25 0 0 1 25,-25 25,25 0 0 1 25,25 z" />
  <path
     id="circle7"
     style="fill:#ffd700;stroke:#e94560;stroke-width:3"
     d="m 257.5,272.5 a 25,25 0 0 1 -25,25 25,25 0 0 1 -25,-25 25,25 0 0 1 25,-25 25,25 0 0 1 25,25 z" />
  <!-- Joystick -->
  <path
     id="circle8"
     style="fill:#333333;stroke:#e94560;stroke-width:3"
     d="m 102.5,352.5 a 30,30 0 0 1 -30,30 30,30 0 0 1 -30,-30 30,30 0 0 1 30,-30 30,30 0 0 1 30,30 z" />
  <path
     id="circle9"
     style="fill:#666666"
     d="m 87.5,352.5 a 15,15 0 0 1 -15,15 15,15 0 0 1 -15,-15 15,15 0 0 1 15,-15 15,15 0 0 1 15,15 z" />
  <!-- Pulsanti A, B, C -->
  <path
     d="m 78.9292,277.5 h -2.83008 l -1.125,-2.92676 H 69.82373 L 68.76025,277.5 h -2.75976 l 5.01855,-12.88477 h 2.75098 z m -4.79004,-5.09766 -1.77539,-4.78125 -1.74023,4.78125 z"
     id="text9"
     style="font-weight:bold;font-size:18px;font-family:Arial, sans-serif;text-anchor:middle"
     aria-label="A" />
  <path
     d="m 147.31885,264.61523 h 5.15039 q 1.5293,0 2.27637,0.13184 0.75585,0.12305 1.34472,0.52734 0.59766,0.4043 0.99317,1.08106 0.3955,0.66797 0.3955,1.50293 0,0.90527 -0.49218,1.66113 -0.4834,0.75586 -1.31836,1.13379 1.17773,0.34277 1.81054,1.16895 0.63282,0.82617 0.63282,1.94238 0,0.8789 -0.41309,1.71387 -0.4043,0.82617 -1.11621,1.32714 -0.70313,0.49219 -1.74023,0.60645 -0.6504,0.0703 -3.1377,0.0879 h -4.38574 z m 2.60156,2.14454 v 2.97949 h 1.70508 q 1.52051,0 1.88965,-0.0439 0.66797,-0.0791 1.0459,-0.45703 0.38671,-0.38672 0.38671,-1.01074 0,-0.59766 -0.33398,-0.9668 -0.3252,-0.37793 -0.97559,-0.45703 -0.38672,-0.0439 -2.22363,-0.0439 z m 0,5.12402 v 3.44531 h 2.4082 q 1.40625,0 1.78418,-0.0791 0.58008,-0.10547 0.94043,-0.50977 0.36914,-0.41308 0.36914,-1.09863 0,-0.58008 -0.28125,-0.98437 -0.28125,-0.4043 -0.81738,-0.58887 -0.52734,-0.18457 -2.30273,-0.18457 z"
     id="text10"
     style="font-weight:bold;font-size:18px;font-family:Arial, sans-serif;text-anchor:middle"
     aria-label="B" />
  <path
     d="m 235.5542,272.7627 2.52246,0.7998 q -0.58008,2.10937 -1.93359,3.1377 -1.34473,1.01953 -3.41895,1.01953 -2.56641,0 -4.21875,-1.74903 -1.65234,-1.75781 -1.65234,-4.79883 0,-3.21679 1.66113,-4.99218 1.66113,-1.78418 4.36816,-1.78418 2.36426,0 3.84082,1.39746 0.87891,0.82617 1.31836,2.37305 l -2.57519,0.61523 q -0.22852,-1.00195 -0.95801,-1.58203 -0.7207,-0.58008 -1.75781,-0.58008 -1.43262,0 -2.3291,1.02832 -0.8877,1.02832 -0.8877,3.33106 0,2.44335 0.87891,3.48046 0.8789,1.03711 2.28515,1.03711 1.03711,0 1.78418,-0.65918 0.74707,-0.65918 1.07227,-2.07421 z"
     id="text11"
     style="font-weight:bold;font-size:18px;font-family:Arial, sans-serif;text-anchor:middle"
     aria-label="C" />
  <!-- Effetti particelle luminose -->
  <!-- Testo aggiuntivo -->
</svg>
